# xmcd
# 
# Track frame offsets:
#     150
#     20387
#     30264
#     48881
#     64868
#     87898
#     107046
#     127906
#     142936
#     166960
#     184354
#     207812
#     221787
#     246173
#     262569
#     278617
# 
# Disc length: 4025
# 
# Revision: 4
# Processed by: cddbd v1.5.2PL0 Copyright (c) Steve Scherf et al.
# Submitted via: fre:ac v1.0.17
# 
DISCID=d10fb710
DTITLE=Various Artist - Let's Rock CD1
DYEAR=2007
DGENRE=Rock
TTITLE0=Verschiedene Künstler - KISS - I Was Made for Lovin' You
TTITLE1=Verschiedene Künstler - The Beatles - Ain't She Sweet
TTITLE2=Verschiedene Künstler - The Rasmus - In the Shadows
TTITLE3=Verschiedene Künstler - The Cure - Friday I'm in Love
TTITLE4=Verschiedene Künstler - The Cranberries - Zombie
TTITLE5=Verschiedene Künstler - Free - All Right Now
TTITLE6=Verschiedene Künstler - Audioslave - Be Yourself
TTITLE7=Verschiedene Künstler - Weezer - Island in the Sun
TTITLE8=Verschiedene Künstler - Deep Purple - Perfect Strangers
TTITLE9=Verschiedene Künstler - ZZ Top - La Grange
TTITLE10=Verschiedene Künstler - Stereo MCs - Connected
TTITLE11=Verschiedene Künstler - Razorlight - Stumble and Fall
TTITLE12=Verschiedene Künstler - Ryan Adams - Carolina Rain
TTITLE13=Various Artist - Iggy Pop - Real Wild Child
TTITLE14=Verschiedene Künstler - Billy Idol - White Wedding
TTITLE15=Verschiedene Künstler - Thin Lizzy - The Rocker
EXTD=YEAR: 2007
EXTT0=
EXTT1=
EXTT2=
EXTT3=
EXTT4=
EXTT5=
EXTT6=
EXTT7=
EXTT8=
EXTT9=
EXTT10=
EXTT11=
EXTT12=
EXTT13=
EXTT14=
EXTT15=
PLAYORDER=
